<?xml version="1.0" standalone="no"?>
<!DOCTYPE svg PUBLIC "-//W3C//DTD SVG 20010904//EN"
 "http://www.w3.org/TR/2001/REC-SVG-20010904/DTD/svg10.dtd">
<svg version="1.0" xmlns="http://www.w3.org/2000/svg"
 width="260.000000pt" height="260.000000pt" viewBox="0 0 260.000000 260.000000"
 preserveAspectRatio="xMidYMid meet">
<metadata>
Created by potrace 1.11, written by Peter Selinger 2001-2013
</metadata>
<g transform="translate(0.000000,260.000000) scale(0.100000,-0.100000)"
fill="#000000" stroke="none">
<path d="M0 1300 l0 -1300 1300 0 1300 0 0 1300 0 1300 -1300 0 -1300 0 0
-1300z m1875 646 c72 -30 85 -129 24 -180 -45 -39 -120 -37 -160 3 -54 55 -35
152 36 181 30 13 62 11 100 -4z m-718 -20 c165 -44 278 -161 299 -308 l6 -48
-111 0 -111 0 0 32 c0 49 -43 113 -92 137 -143 68 -323 12 -343 -106 -15 -95
52 -157 237 -218 168 -56 250 -96 312 -155 65 -62 95 -120 103 -204 15 -162
-87 -296 -262 -341 -74 -19 -252 -20 -322 -1 -178 47 -299 168 -319 319 l-7
47 112 0 111 0 0 -30 c0 -114 127 -191 291 -177 78 7 116 23 154 69 24 29 27
38 23 95 -6 99 -43 127 -268 202 -150 51 -229 93 -291 158 -72 74 -84 103 -84
208 0 81 3 95 30 144 46 83 141 150 250 177 68 17 219 17 282 0z m763 -766 l0
-450 -100 0 -100 0 0 450 0 450 100 0 100 0 0 -450z"/>
</g>
</svg>
